<svg id="Layer_1" enable-background="new 0 0 512.013 512.013" height="512" viewBox="0 0 512.013 512.013" width="512" xmlns="http://www.w3.org/2000/svg"><g id="XMLID_753_"><g id="XMLID_360_"><path id="XMLID_361_" d="m112.006 43.996c-2.63 0-5.21 1.07-7.07 2.93s-2.93 4.44-2.93 7.07c0 2.64 1.07 5.21 2.93 7.07 1.86 1.87 4.44 2.93 7.07 2.93s5.21-1.06 7.07-2.93c1.86-1.86 2.93-4.43 2.93-7.07 0-2.63-1.07-5.2-2.93-7.07-1.86-1.86-4.44-2.93-7.07-2.93z"/><path id="XMLID_362_" d="m64.006 43.996c-2.63 0-5.21 1.07-7.07 2.93s-2.93 4.44-2.93 7.07c0 2.64 1.07 5.21 2.93 7.07 1.86 1.87 4.44 2.93 7.07 2.93s5.21-1.06 7.07-2.93c1.86-1.86 2.93-4.43 2.93-7.07 0-2.63-1.07-5.21-2.93-7.07s-4.44-2.93-7.07-2.93z"/><path id="XMLID_363_" d="m160.006 43.996c-2.63 0-5.21 1.07-7.07 2.93s-2.93 4.44-2.93 7.07c0 2.64 1.07 5.21 2.93 7.07 1.86 1.87 4.44 2.93 7.07 2.93s5.21-1.06 7.07-2.93c1.86-1.86 2.93-4.44 2.93-7.07s-1.07-5.2-2.93-7.07c-1.86-1.86-4.44-2.93-7.07-2.93z"/><path id="XMLID_366_" d="m470.006 0h-428c-23.159 0-42 18.841-42 42v299.95c0 23.159 18.841 42 42 42h115.255c23.331 22.607 54.369 37.299 88.745 39.703v21.863c-10.719 3.305-19.192 11.778-22.497 22.497h-111.503c-5.523 0-10 4.477-10 10s4.477 10 10 10h111.503c4.281 13.882 17.229 24 32.497 24s28.217-10.118 32.497-24h111.503c5.523 0 10-4.477 10-10s-4.477-10-10-10h-111.503c-3.305-10.719-11.778-19.192-22.497-22.497v-21.863c34.376-2.404 65.414-17.095 88.745-39.703h115.255c23.159 0 42-18.841 42-42v-299.95c0-23.159-18.841-42-42-42zm-182.514 399.882c8.839-15.988 15.125-38.62 18.77-63.872h59.119c-15.42 31.107-43.722 54.737-77.889 63.872zm-53.111-27.696c-3.544-10.633-6.377-22.868-8.436-36.175h60.123c-2.059 13.307-4.891 25.542-8.436 36.175-7.328 21.983-16.142 31.824-21.625 31.824s-14.299-9.841-21.626-31.824zm-100.373-90.175c0-11.796 1.689-23.203 4.827-34h64.624c-.964 11.153-1.452 22.587-1.452 34s.488 22.847 1.452 33.999h-64.624c-3.138-10.796-4.827-22.204-4.827-33.999zm87.999 0c0-11.67.523-23.073 1.514-34h64.971c.991 10.927 1.514 22.33 1.514 34s-.523 23.072-1.514 33.999h-64.971c-.991-10.926-1.514-22.329-1.514-33.999zm155.997 0c0 11.795-1.689 23.202-4.826 33.999h-64.624c.963-11.152 1.452-22.586 1.452-33.999s-.488-22.847-1.452-34h64.624c3.138 10.797 4.826 22.205 4.826 34zm-71.742-54c-3.645-25.251-9.931-47.883-18.77-63.871 34.167 9.135 62.468 32.765 77.889 63.871zm-28.63-36.175c3.544 10.633 6.377 22.868 8.436 36.175h-60.123c2.059-13.307 4.891-25.542 8.436-36.175 7.328-21.983 16.142-31.824 21.625-31.824s14.298 9.841 21.626 31.824zm-71.881 36.175h-59.119c15.42-31.106 43.721-54.736 77.889-63.871-8.839 15.988-15.125 38.62-18.77 63.871zm0 107.999c3.645 25.251 9.931 47.884 18.77 63.872-34.167-9.135-62.469-32.765-77.889-63.872zm50.255 156.003c-7.72 0-14-6.28-14-14s6.28-14 14-14 14 6.28 14 14-6.28 14-14 14zm214-128.063h-98.091c16.424-23.165 26.089-51.444 26.089-81.938 0-78.298-63.7-141.999-141.998-141.999s-141.998 63.7-141.998 141.999c0 30.495 9.665 58.773 26.089 81.938h-98.091c-12.131 0-22-9.869-22-22v-233.95h191c5.523 0 10-4.477 10-10s-4.477-10-10-10h-191v-46c0-12.131 9.869-22 22-22h428c12.131 0 22 9.869 22 22v46h-191c-5.523 0-10 4.477-10 10s4.477 10 10 10h191v233.95c0 12.131-9.869 22-22 22z"/><path id="XMLID_405_" d="m256.006 88.066c-2.63 0-5.21 1.06-7.07 2.93-1.86 1.86-2.93 4.44-2.93 7.07s1.07 5.21 2.93 7.07 4.44 2.93 7.07 2.93 5.21-1.07 7.07-2.93 2.93-4.44 2.93-7.07-1.07-5.21-2.93-7.07c-1.86-1.87-4.44-2.93-7.07-2.93z"/></g></g></svg>